<?xml version="1.0" encoding="UTF-8" standalone="no"?>
<svg
   xmlns:dc="http://purl.org/dc/elements/1.1/"
   xmlns:cc="http://creativecommons.org/ns#"
   xmlns:rdf="http://www.w3.org/1999/02/22-rdf-syntax-ns#"
   xmlns:svg="http://www.w3.org/2000/svg"
   xmlns="http://www.w3.org/2000/svg"
   xmlns:sodipodi="http://sodipodi.sourceforge.net/DTD/sodipodi-0.dtd"
   xmlns:inkscape="http://www.inkscape.org/namespaces/inkscape"
   width="71"
   height="72"
   viewBox="0 0 71 72"
   fill="none"
   version="1.1"
   id="svg22"
   sodipodi:docname="Asteroid.svg"
   inkscape:version="1.0.2 (e86c870879, 2021-01-15, custom)">
  <metadata
     id="metadata28">
    <rdf:RDF>
      <cc:Work
         rdf:about="">
        <dc:format>image/svg+xml</dc:format>
        <dc:type
           rdf:resource="http://purl.org/dc/dcmitype/StillImage" />
        <dc:title></dc:title>
      </cc:Work>
    </rdf:RDF>
  </metadata>
  <defs
     id="defs26" />
  <sodipodi:namedview
     pagecolor="#ffffff"
     bordercolor="#666666"
     borderopacity="1"
     objecttolerance="10"
     gridtolerance="10"
     guidetolerance="10"
     inkscape:pageopacity="0"
     inkscape:pageshadow="2"
     inkscape:window-width="960"
     inkscape:window-height="1027"
     id="namedview24"
     showgrid="false"
     inkscape:zoom="8.3576093"
     inkscape:cx="34.007474"
     inkscape:cy="38.748385"
     inkscape:window-x="-8"
     inkscape:window-y="22"
     inkscape:window-maximized="0"
     inkscape:current-layer="svg22" />
  <path
     d="M1.13589 42.1051C2.36992 45.5191 4.20391 49.2229 6.78391 51.3813C12.5054 56.1687 13.7315 57.7414 15.8437 67.3162C17.9558 76.891 27.7641 68.8204 27.7641 68.8204C27.7641 68.8204 30.6931 66.8368 35.603 69.6107C36.9618 70.2672 38.4768 70.5279 39.9758 70.3632C44.0627 70.1577 51.7468 68.4534 58.0079 59.4511C66.9994 46.5254 72.2442 42.6952 70.7461 31.2052C69.2479 19.7153 67.5443 13.7653 54.6023 11.7816C45.7795 10.4302 38.5101 5.73854 34.7721 2.89086C34.5185 2.6968 34.2596 2.51328 33.9955 2.33854C32.4592 1.31374 30.7357 0.605214 28.9247 0.254012C27.1137 -0.0971895 25.2514 -0.0840862 23.4455 0.292564C19.9865 1.06678 16.7762 2.69983 14.1085 5.04221C12.8682 6.09499 11.738 7.27186 10.7352 8.55461C9.02245 10.7441 7.68013 13.2017 6.76205 15.8288C5.47263 19.6214 3.93348 23.3237 2.15478 26.9113C1.18373 28.7584 0.523559 30.754 0.200971 32.8174C-0.254348 35.9433 0.0668137 39.1338 1.13589 42.1051Z"
     fill="#828A9E"
     id="path20" />
  <path
     d="M 10.746708,8.5690702 C 13.152673,10.399 16.868753,11.5731 21.040463,11.5731 c 7.259,0 13.138804,-3.5537198 13.138804,-7.9336898 -6e-4,-0.43358 -0.0594,-0.86511 -0.1749,-1.2829 -1.536304,-1.0248 -3.259904,-1.73332605 -5.070804,-2.08452805 -1.811,-0.351202 -3.6734,-0.338098 -5.4792,0.03855 -3.45803,0.77436605 -6.66738,2.40709605 -9.33441,4.74876605 -1.24013,1.05196 -2.37037,2.22794 -3.373245,3.50977 z"
     fill="#62667c"
     id="path60" />
  <path
     d="m 21.987318,64.917445 c 0.28408,-2e-4 0.55687,-0.1117 0.76026,-0.3108 0.20339,-0.1991 0.32129,-0.4701 0.32859,-0.7553 0.19503,-6.56289 -3.49831,-9.76444 -3.6566,-9.897031 -0.22174,-0.175348 -0.50259,-0.257474 -0.78343,-0.229085 -0.28083,0.02839 -0.539742,0.165079 -0.722222,0.381286 -0.182469,0.21621 -0.274269,0.49507 -0.256069,0.77787 0.0182,0.28281 0.14498,0.54749 0.353649,0.73832 0.13468,0.11679 3.048772,2.71421 2.886102,8.16104 -0.004,0.1436 0.0196,0.2867 0.0704,0.4211 0.0508,0.1343 0.12738,0.2573 0.22549,0.3619 0.0981,0.1046 0.21577,0.1888 0.34628,0.2478 0.13051,0.0589 0.27132,0.0915 0.41436,0.0958 z"
     fill="#62667c"
     id="path110" />
  <path
     d="m 7.6116269,38.170806 c 0.043,-10e-5 0.0859,-0.0028 0.12856,-0.0079 0.28687,-0.0339 0.54861,-0.1807 0.72769,-0.4083 0.17908,-0.2275 0.26085,-0.5172 0.22735,-0.8052 -0.66031,-5.640951 1.16056,-8.436821 1.17893,-8.464041 0.1643401,-0.23871 0.2275001,-0.53319 0.1755901,-0.81866 -0.0519,-0.28546 -0.2146401,-0.53853 -0.4523901,-0.70353 -0.23776,-0.165001 -0.53105,-0.228415 -0.81537,-0.176295 -0.28432,0.05212 -0.53638,0.215505 -0.70071,0.454215 -0.0953,0.13698 -2.31676,3.42459 -1.55063,9.963811 0.0314,0.2658 0.15877,0.5109 0.35795,0.6889 0.19918,0.178 0.45639,0.2765 0.72303,0.277 z"
     fill="#62667c"
     id="path150" />
  <path
     d="m 47.924617,38.96387 c 0.1643,7e-5 0.32648,-0.03713 0.47445,-0.10883 0.14797,-0.07169 0.2779,-0.17603 0.38007,-0.30522 0.10218,-0.12918 0.17396,-0.27986 0.20999,-0.44081 0.036,-0.16094 0.0354,-0.32799 -0.002,-0.48864 -1.15095,-4.95425 -5.72674,-6.535713 -7.98577,-6.679721 -0.28844,-0.01886 -0.57252,0.07809 -0.78976,0.269522 -0.21724,0.191436 -0.34983,0.461678 -0.36862,0.751269 -0.0188,0.2896 0.0778,0.57483 0.26844,0.79294 0.19067,0.21811 0.45982,0.35125 0.74825,0.37011 0.21165,0.01493 4.93874,0.40831 6.00398,4.99288 0.0558,0.24055 0.19101,0.45508 0.3836,0.60875 0.19259,0.15367 0.43127,0.23746 0.67727,0.23775 z"
     fill="#62667c"
     id="path190" />
  <path
     d="m 61.202332,39.946865 c 0.26621,4e-4 0.52328,-0.0974 0.7224,-0.2748 3.56127,-3.16735 3.01903,-8.42454 2.99454,-8.6467 -0.0319,-0.28843 -0.17659,-0.552322 -0.40228,-0.73363 -0.22568,-0.181307 -0.51386,-0.265176 -0.80113,-0.233154 -0.28727,0.03202 -0.55011,0.177311 -0.73069,0.403905 -0.18058,0.226589 -0.26411,0.515929 -0.23221,0.804359 0.004,0.04303 0.43116,4.36153 -2.2739,6.76664 -0.16568,0.14725 -0.28279,0.34164 -0.33576,0.55733 -0.053,0.21569 -0.0393,0.44247 0.0392,0.65017 0.0785,0.2077 0.21813,0.38648 0.4003,0.51258 0.18217,0.1261 0.39825,0.1935 0.61951,0.1933 z"
     fill="#62667c"
     id="path230" />
  <path
     d="m 35.200549,43.194382 c 2.00644,0 3.63299,-1.28596 3.63299,-2.87227 0,-1.58631 -1.62655,-2.872277 -3.63299,-2.872277 -2.00645,0 -3.633002,1.285967 -3.633002,2.872277 0,1.58631 1.626552,2.87227 3.633002,2.87227 z"
     fill="#62667c"
     id="path270" />
  <path
     d="m 34.371871,58.196872 c 1.82433,-1.66336 2.66674,-3.71553 1.88156,-4.583637 -0.78517,-0.86811 -2.9006,-0.223427 -4.72493,1.439937 -1.82433,1.66336 -2.66673,3.71552 -1.88156,4.58363 0.78518,0.86811 2.9006,0.22343 4.72493,-1.43993 z"
     fill="#62667c"
     id="path310" />
  <path
     d="m 51.987358,54.818749 c 0.94236,-1.92014 0.47347,-4.08664 -1.04729,-4.83902 -1.52076,-0.75238 -3.51752,0.19427 -4.45988,2.11441 -0.942354,1.92014 -0.473465,4.08664 1.0473,4.83902 1.52076,0.75238 3.51751,-0.19427 4.45987,-2.11441 z"
     fill="#62667c"
     id="path350" />
  <path
     d="m 21.38812,49.048499 c 1.66681,-1.67354 1.25711,-4.79825 -0.91512,-6.97923 -2.17223,-2.180976 -5.284398,-2.592341 -6.951218,-0.9188 -1.666825,1.67353 -1.257111,4.79824 0.91512,6.97922 2.17223,2.18097 5.284398,2.59237 6.951218,0.91881 z"
     fill="#62667c"
     id="path410" />
  <path
     d="m 25.168468,29.610129 c 3.85092,-0.8223 6.49032,-3.76624 5.89522,-6.57548 -0.5951,-2.80923 -4.19923,-4.419956 -8.05015,-3.59765 -3.850921,0.82231 -6.490305,3.76626 -5.895238,6.5755 0.595068,2.80923 4.199248,4.41993 8.050168,3.59763 z"
     fill="#62667c"
     id="path450" />
  <path
     d="m 48.710009,19.200904 c 0.40926,0 0.66556,-0.01931 0.71276,-0.02283 0.2881,-0.02329 0.5552,-0.16052 0.7425,-0.38152 0.1873,-0.22099 0.2795,-0.50764 0.2563,-0.79689 -0.0232,-0.28925 -0.1599,-0.55739 -0.38,-0.74545 -0.2201,-0.18806 -0.5056,-0.28063 -0.7937,-0.25734 -0.0761,0.0062 -5.0839,0.35124 -8.11431,-2.8547 -0.19913,-0.210417 -0.47335,-0.332791 -0.76235,-0.340201 -0.28899,-0.0074 -0.56908,0.100748 -0.778652,0.300681 -0.209568,0.19993 -0.331454,0.47527 -0.338835,0.76542 -0.0074,0.29016 0.100344,0.57138 0.299474,0.78179 3.040033,3.21385 7.442643,3.55104 9.156813,3.55104 z"
     fill="#62667c"
     id="path520"
     style="stroke-width:1" />
</svg>
